<svg id="Layer_1" enable-background="new 0 0 496 496" height="512" viewBox="0 0 496 496" width="512" xmlns="http://www.w3.org/2000/svg"><path d="m132 193.009c-72.785 0-132 59.215-132 132s59.215 132 132 132 132-59.215 132-132-59.215-132-132-132zm-4.555 113.505 19.541 6.738c37.858 13.054 39.074 66.823 1.014 81.069 0 10.222-7.638 16.688-16 16.688-8.278 0-16-6.369-16-16.688-16.346-6.119-28.017-21.895-28.017-40.351 0-8.837 7.163-16 16-16s16 7.163 16 16c0 6.104 4.967 11.071 11.071 11.071h1.891c12.492 0 15.33-17.496 3.609-21.538l-19.541-6.738c-37.857-13.053-39.073-66.822-1.013-81.069 0-10.222 7.638-16.688 16-16.688 8.278 0 16 6.369 16 16.688 16.346 6.119 28.017 21.895 28.017 40.351 0 8.837-7.163 16-16 16s-16-7.163-16-16c0-6.104-4.967-11.071-11.071-11.071h-1.891c-12.492 0-15.33 17.496-3.61 21.538zm368.555 134.495c0 8.837-7.163 16-16 16h-224c-8.837 0-16-7.163-16-16s7.163-16 16-16h68v-200c0-8.837 7.163-16 16-16s16 7.163 16 16v200h81v-264c0-8.837 7.163-16 16-16s16 7.163 16 16v264h11c8.837 0 16 7.163 16 16zm-272.313-252.314 68.5-68.5c6.248-6.248 16.379-6.248 22.627 0l25.186 25.186 74.373-74.372h-7.373c-8.837 0-16-7.163-16-16s7.163-16 16-16c49.584 0 46.917-.129 49.121.309 7.63 1.509 12.882 8.268 12.879 15.696v45.995c0 8.837-7.163 16-16 16s-16-7.163-16-16v-7.373l-85.687 85.687c-6.248 6.248-16.379 6.248-22.627 0l-25.186-25.186-57.187 57.186c-3.124 3.124-7.219 4.687-11.313 4.687-14.124-.001-21.424-17.206-11.313-27.315z"/></svg>